<svg xmlns="http://www.w3.org/2000/svg" width="204" height="204" fill="none"><path fill="url(#a)" d="M187.639 69.902c5.453-2.043 11.587.712 13.057 6.346a102 102 0 0 1-4.26 64.298 101.997 101.997 0 0 1-125.454 58.623A101.998 101.998 0 0 1 44.894 17.484a102 102 0 0 1 129.897 13.063c4.078 4.155 3.292 10.833-1.262 14.462s-11.144 2.818-15.334-1.226a80.914 80.914 0 1 0 22.62 39.905c-1.318-5.672 1.372-11.742 6.824-13.786"/><path fill="#fff" d="M66.08 99.16c0 4.644 3.24 8.352 7.956 8.352q.918 0 1.296-.216L69.896 115h7.632l5.544-8.82c1.404-2.268 2.304-4.86 2.304-7.2 0-5.256-4.068-9.18-9.648-9.18-5.472 0-9.648 3.96-9.648 9.36m6.336-.252c0-1.836 1.476-3.24 3.348-3.24s3.312 1.44 3.312 3.276-1.44 3.24-3.312 3.24-3.348-1.44-3.348-3.276m21.981 6.012c.54-.864 1.584-1.548 2.916-1.548 1.836 0 3.168 1.296 3.168 3.06s-1.332 3.168-3.168 3.168c-1.908 0-2.952-1.26-3.06-2.376h-6.336c.108 5.004 3.78 8.28 9.504 8.28 5.364 0 9.468-3.996 9.468-9.396 0-4.464-3.204-8.172-7.92-8.172-1.548 0-2.916.396-4.104 1.152l.468-3.168h9.828v-5.616H90.365l-1.836 13.392zm26.96-8.892c0-3.42-2.772-6.084-6.336-6.084s-6.336 2.664-6.336 6.084 2.772 6.084 6.336 6.084 6.336-2.664 6.336-6.084m-4.248 0c0 1.26-.9 2.124-2.088 2.124s-2.088-.864-2.088-2.124.9-2.124 2.088-2.124 2.088.864 2.088 2.124m17.748-5.76h-5.508L110.989 115h5.508zm-10.368 18.972c0 3.42 2.772 6.084 6.336 6.084s6.336-2.664 6.336-6.084-2.772-6.084-6.336-6.084-6.336 2.664-6.336 6.084m4.248 0c0-1.26.9-2.124 2.088-2.124s2.088.864 2.088 2.124-.9 2.124-2.088 2.124-2.088-.864-2.088-2.124"/><defs><linearGradient id="a" x1="-12.435" x2="228.124" y1="91.215" y2="92.098" gradientUnits="userSpaceOnUse"><stop stop-color="#AA367C"/><stop offset="1" stop-color="#4A2FBD"/></linearGradient></defs></svg>