<svg xmlns="http://www.w3.org/2000/svg" width="204" height="204" fill="none"><path fill="url(#a)" d="M187.639 69.902c5.453-2.043 11.587.712 13.057 6.346a102 102 0 0 1-4.26 64.298 101.997 101.997 0 0 1-125.454 58.623A101.998 101.998 0 0 1 44.894 17.484a102 102 0 0 1 129.897 13.063c4.078 4.155 3.292 10.833-1.262 14.462s-11.144 2.818-15.334-1.226a80.914 80.914 0 1 0 22.62 39.905c-1.318-5.672 1.372-11.742 6.824-13.786"/><path fill="#fff" d="M75.656 89.8c-4.608 0-8.496 2.844-8.496 7.164 0 2.052 1.116 3.672 2.808 4.68-1.908.972-3.888 3.024-3.888 5.904 0 5.004 4.572 7.956 9.576 7.956s9.576-2.952 9.576-7.956c0-2.88-1.98-4.932-3.888-5.904 1.692-1.008 2.808-2.628 2.808-4.68 0-4.32-3.888-7.164-8.496-7.164m3.096 17.388c0 1.692-1.26 2.916-3.096 2.916s-3.096-1.224-3.096-2.916c0-1.62 1.26-2.88 3.096-2.88s3.096 1.26 3.096 2.88m-3.096-12.132c1.44 0 2.556.972 2.556 2.376s-1.08 2.376-2.556 2.376-2.556-.972-2.556-2.376 1.116-2.376 2.556-2.376m33.869 7.596c0-6.804-3.888-12.852-10.944-12.852-7.092 0-10.98 6.048-10.98 12.852s3.888 12.852 10.98 12.852c7.056 0 10.944-6.048 10.944-12.852m-6.696 0c0 3.348-1.296 6.624-4.248 6.624-2.988 0-4.284-3.276-4.284-6.624s1.296-6.624 4.284-6.624c2.952 0 4.248 3.276 4.248 6.624m21.552-6.624c0-3.42-2.772-6.084-6.336-6.084s-6.336 2.664-6.336 6.084 2.772 6.084 6.336 6.084 6.336-2.664 6.336-6.084m-4.248 0c0 1.26-.9 2.124-2.088 2.124s-2.088-.864-2.088-2.124.9-2.124 2.088-2.124 2.088.864 2.088 2.124m17.748-5.76h-5.508L114.013 115h5.508zm-10.368 18.972c0 3.42 2.772 6.084 6.336 6.084s6.336-2.664 6.336-6.084-2.772-6.084-6.336-6.084-6.336 2.664-6.336 6.084m4.248 0c0-1.26.9-2.124 2.088-2.124s2.088.864 2.088 2.124-.9 2.124-2.088 2.124-2.088-.864-2.088-2.124"/><defs><linearGradient id="a" x1="-12.435" x2="228.124" y1="91.215" y2="92.098" gradientUnits="userSpaceOnUse"><stop stop-color="#AA367C"/><stop offset="1" stop-color="#4A2FBD"/></linearGradient></defs></svg>